# xmcd
#
# Track frame offsets:
#	150
#	14145
#	26220
#	41065
#	52535
#	65105
#	75465
#	88325
#	97850
#	107320
#	119660
#	133510
#	148620
#	158445
#	173595
#	194190
#	206250
#	218955
#	233300
#	244335
#	255620
#	267810
#	280745
#	298425
#	310280
#	322065
#
# Disc length: 4438 seconds
#
# Revision: 0
# Processed by: cddbd v1.4PL0 Copyright (c) Steve Scherf et al.
# Submitted via: dBpowerAMP V4.0
#
DISCID=7d11541a
DTITLE=Local Artist - Unknown
DYEAR=1900
DGENRE=Oldies
TTITLE0=Happy Man
TTITLE1=Pony Time
TTITLE2=You can make it if you try-The Sunglows
TTITLE3=The Dog - The Sunglows
TTITLE4=Baby Heaven Sent Me You - Jimmy Donley
TTITLE5=The One's Who's Hurting Is You - Sunny and the Sunliners
TTITLE6=I'm a Practical Guy - Sunny and the Sunliners
TTITLE7=Hopeless Case - Sunny and the Sunliners
TTITLE8=Smile Now, Cry Later - Sunny and the Sunliners
TTITLE9=Baby, I Apologize - Sunny and the Sunliners
TTITLE10=My Dream  - Doc and Sal
TTITLE11=Cry and Wonder Why - Doc and Sal
TTITLE12=Touring - Sunny and the Sunglows
TTITLE13=That Girl - The Royal Jesters
TTITLE14=Confessing a Feeling - Sly Slick
TTITLE15=Runaway - Sunny and the Sunliners
TTITLE16=His Greatest Creation - Sunny and the Sunliners
TTITLE17=Just a Gigolo - Sonny Ace and the Twisters
TTITLE18=Pretend - The Skytones
TTITLE19=Just a Moment - Sunny and the Sunglows
TTITLE20=I Won't Love You Again - Dimas III
TTITLE21=So Lonely - Sonny Ace and the Twisters
TTITLE22=Greate, Greater, Greater - Sunny and the Sunliners
TTITLE23=Gee Whiz - The Royal Jesters
TTITLE24=Funny - The Royal Jesters
TTITLE25=Lonely, Lonely Guy - The Royal Jesters
EXTD=
EXTT0=
EXTT1=
EXTT2=
EXTT3=
EXTT4=
EXTT5=
EXTT6=
EXTT7=
EXTT8=
EXTT9=
EXTT10=
EXTT11=
EXTT12=
EXTT13=
EXTT14=
EXTT15=
EXTT16=
EXTT17=
EXTT18=
EXTT19=
EXTT20=
EXTT21=
EXTT22=
EXTT23=
EXTT24=
EXTT25=
PLAYORDER=
